# xmcd
#
# Track frame offsets: 
#        150
#        16064
#        32354
#        48440
#        67625
#        83883
#        97846
#        114353
#        131923
#        144273
#        178509
#
# Disc length: 2451 seconds
#
# Revision: 0
# Processed by: cddbd v1.5.2PL0 Copyright (c) Steve Scherf et al.
# Submitted via: ExactAudioCopy v0.99pb5
#
DISCID=7a09910b
DTITLE=Thomas Martinez - Promises
DYEAR=2006
DGENRE=Country
TTITLE0=Crazy's All They've Got
TTITLE1=Like That's a Bad Thing
TTITLE2=Promises
TTITLE3=Dust
TTITLE4=Goin, Goin, Gone
TTITLE5=So You
TTITLE6=Over You
TTITLE7=Scarecrow
TTITLE8=I'm So Easy
TTITLE9=Canyons
TTITLE10=Unknown
EXTD=
EXTT0=
EXTT1=
EXTT2=
EXTT3=
EXTT4=
EXTT5=
EXTT6=
EXTT7=
EXTT8=
EXTT9=
EXTT10=
PLAYORDER=
